<svg xmlns="http://www.w3.org/2000/svg" width="100%" height="100%" viewBox="0 0 512 512"><defs><radialGradient id="bgGrad" cx="50%" cy="50%" r="70%"><stop offset="0%" stop-color="#091C14"/><stop offset="100%" stop-color="#030906"/></radialGradient><linearGradient id="routeGrad" x1="0%" x2="100%" y1="100%" y2="0%"><stop offset="0%" stop-color="#F36"/><stop offset="40%" stop-color="#00D084"/><stop offset="100%" stop-color="#0F6"/></linearGradient><filter id="glow" width="200%" height="200%" x="-50%" y="-50%"><feGaussianBlur result="blur" stdDeviation="8"/><feMerge><feMergeNode in="blur"/><feMergeNode in="SourceGraphic"/></feMerge></filter><filter id="dropShadow" width="140%" height="140%" x="-20%" y="-20%"><feDropShadow dx="0" dy="8" flood-color="#000" flood-opacity=".5" stdDeviation="10"/></filter></defs><g id="Background"><rect width="512" height="512" fill="url(#bgGrad)"/></g><g id="Foreground" transform="translate(256, 256) scale(0.7) translate(-256, -256)"><path fill="none" stroke="#0E2419" stroke-linecap="round" stroke-width="16" d="M 120 392 Q 256 392 256 256 T 392 120" filter="url(#dropShadow)"/><path fill="none" stroke="url(#routeGrad)" stroke-dasharray="0 18" stroke-linecap="round" stroke-width="6" d="M 120 392 Q 256 392 256 256 T 392 120"/><circle cx="120" cy="392" r="24" fill="#F36" opacity=".12"/><circle cx="120" cy="392" r="14" fill="#F36" opacity=".2"/><circle cx="120" cy="392" r="6" fill="#F36"/><circle cx="120" cy="392" r="2" fill="#030906"/><circle cx="256" cy="256" r="42" fill="#00D084" opacity=".12"/><circle cx="256" cy="256" r="24" fill="#00D084" opacity=".2"/><circle cx="256" cy="256" r="8" fill="#00D084"/><circle cx="256" cy="256" r="3" fill="#030906"/><circle cx="392" cy="120" r="82" fill="#0F6" opacity=".06"/><circle cx="392" cy="120" r="54" fill="#0F6" opacity=".12"/><circle cx="392" cy="120" r="28" fill="#0F6" opacity=".2"/><circle cx="392" cy="120" r="12" fill="#0F6" filter="url(#glow)"/><circle cx="392" cy="120" r="4" fill="#030906"/></g></svg>